<?xml version="1.0" standalone="no"?>
<!DOCTYPE svg PUBLIC "-//W3C//DTD SVG 20010904//EN"
 "http://www.w3.org/TR/2001/REC-SVG-20010904/DTD/svg10.dtd">
<svg version="1.0" xmlns="http://www.w3.org/2000/svg"
 width="512.000000pt" height="512.000000pt" viewBox="0 0 512.000000 512.000000"
 preserveAspectRatio="xMidYMid meet">

<g transform="translate(0.000000,512.000000) scale(0.100000,-0.100000)"
fill="#FFFF00" stroke="none">
<path d="M1207 4105 c-84 -31 -162 -110 -192 -195 -22 -62 -19 -158 6 -227 20
-55 53 -90 552 -590 l531 -533 -531 -532 c-505 -508 -532 -536 -553 -593 -44
-121 -16 -256 71 -344 88 -87 223 -115 344 -71 57 21 85 48 593 553 l532 531
533 -531 c507 -505 535 -532 592 -553 121 -44 256 -16 344 71 87 88 115 223
71 344 -21 57 -48 85 -553 593 l-531 532 531 533 c505 507 532 535 553 592 44
121 16 256 -71 344 -88 87 -223 115 -344 71 -57 -21 -85 -48 -592 -553 l-533
-531 -532 531 c-501 499 -536 532 -591 552 -68 25 -171 27 -230 6z"/>
</g>
</svg>
